<?xml version="1.0" encoding="UTF-8"?>
<svg width="32px" height="96px" viewBox="0 0 32 96" version="1.1" xmlns="http://www.w3.org/2000/svg" xmlns:xlink="http://www.w3.org/1999/xlink">
    <!-- Generator: Sketch 42 (36781) - http://www.bohemiancoding.com/sketch -->
    <title>分页视图@2x</title>
    <desc>Created with Sketch.</desc>
    <defs></defs>
    <g id="设计图" stroke="none" stroke-width="1" fill="none" fill-rule="evenodd">
        <g id="视图" transform="translate(-265.000000, -83.000000)">
            <g id="Group-6" transform="translate(268.000000, 84.000000)" fill="#525C6F">
                <path d="M1,29 L25,29 L25,1 L1,1 L1,29 Z M0,0 L26,0 L26,30 L0,30 L0,0 Z" id="Rectangle-50" fill-rule="nonzero"></path>
                <rect id="Rectangle-109" x="6" y="6" width="9" height="1"></rect>
                <rect id="Rectangle-109" x="11" y="23" width="9" height="1"></rect>
                <rect id="Rectangle-109" transform="translate(6.500000, 10.500000) rotate(-270.000000) translate(-6.500000, -10.500000) " x="2" y="10" width="9" height="1"></rect>
                <rect id="Rectangle-109" transform="translate(19.500000, 19.500000) rotate(-270.000000) translate(-19.500000, -19.500000) " x="15" y="19" width="9" height="1"></rect>
            </g>
            <g id="Group-6" transform="translate(268.000000, 116.000000)">
                <path d="M1,29 L25,29 L25,1 L1,1 L1,29 Z M0,0 L26,0 L26,30 L0,30 L0,0 Z" id="Rectangle-50" fill="#212D5C" fill-rule="nonzero"></path>
                <rect id="Rectangle" fill="#E8F0FF" x="1" y="1" width="24" height="28"></rect>
                <rect id="Rectangle-109" fill="#212D5C" x="6" y="6" width="9" height="1"></rect>
                <rect id="Rectangle-109" fill="#212D5C" x="11" y="23" width="9" height="1"></rect>
                <rect id="Rectangle-109" fill="#212D5C" transform="translate(6.500000, 10.500000) rotate(-270.000000) translate(-6.500000, -10.500000) " x="2" y="10" width="9" height="1"></rect>
                <rect id="Rectangle-109" fill="#212D5C" transform="translate(19.500000, 19.500000) rotate(-270.000000) translate(-19.500000, -19.500000) " x="15" y="19" width="9" height="1"></rect>
            </g>
            <g id="Group-5" transform="translate(233.000000, 148.000000)" fill="#D2E2FF">
                <rect id="Rectangle" x="36" y="1" width="24" height="28"></rect>
            </g>
            <g id="Group-6" transform="translate(268.000000, 148.000000)" fill="#212D5C">
                <path d="M1,29 L25,29 L25,1 L1,1 L1,29 Z M0,0 L26,0 L26,30 L0,30 L0,0 Z" id="Rectangle-50" fill-rule="nonzero"></path>
                <rect id="Rectangle-109" x="6" y="6" width="9" height="1"></rect>
                <rect id="Rectangle-109" x="11" y="23" width="9" height="1"></rect>
                <rect id="Rectangle-109" transform="translate(6.500000, 10.500000) rotate(-270.000000) translate(-6.500000, -10.500000) " x="2" y="10" width="9" height="1"></rect>
                <rect id="Rectangle-109" transform="translate(19.500000, 19.500000) rotate(-270.000000) translate(-19.500000, -19.500000) " x="15" y="19" width="9" height="1"></rect>
            </g>
        </g>
    </g>
</svg>