<?xml version="1.0" encoding="UTF-8"?>
<svg width="32px" height="96px" viewBox="0 0 32 96" version="1.1" xmlns="http://www.w3.org/2000/svg" xmlns:xlink="http://www.w3.org/1999/xlink">
    <!-- Generator: Sketch 45.2 (43514) - http://www.bohemiancoding.com/sketch -->
    <title>阅读视图@2x</title>
    <desc>Created with Sketch.</desc>
    <defs></defs>
    <g id="设计图" stroke="none" stroke-width="1" fill="none" fill-rule="evenodd">
        <g id="视图" transform="translate(-230.000000, -83.000000)">
            <g id="Group-5" transform="translate(233.000000, 84.000000)" fill="#525C6F">
                <path d="M1,29 L25,29 L25,1 L1,1 L1,29 Z M0,0 L26,0 L26,30 L0,30 L0,0 Z" id="Rectangle-50" fill-rule="nonzero"></path>
                <rect id="Rectangle-51" x="9" y="12" width="8" height="1"></rect>
                <rect id="Rectangle-51" x="9" y="17" width="8" height="1"></rect>
                <path d="M5,25 L21,25 L21,5 L5,5 L5,25 Z M4,4 L22,4 L22,26 L4,26 L4,4 Z" id="Rectangle-108" fill-rule="nonzero"></path>
            </g>
            <g id="Group-5" transform="translate(233.000000, 116.000000)">
                <path d="M1,29 L25,29 L25,1 L1,1 L1,29 Z M0,0 L26,0 L26,30 L0,30 L0,0 Z" id="Rectangle-50" fill="#212D5C" fill-rule="nonzero"></path>
                <rect id="Rectangle" fill="#E8F0FF" x="1" y="1" width="24" height="28"></rect>
                <rect id="Rectangle-51" fill="#212D5C" x="9" y="12" width="8" height="1"></rect>
                <rect id="Rectangle-51" fill="#212D5C" x="9" y="17" width="8" height="1"></rect>
                <path d="M5,25 L21,25 L21,5 L5,5 L5,25 Z M4,4 L22,4 L22,26 L4,26 L4,4 Z" id="Rectangle-108" fill="#212D5C" fill-rule="nonzero"></path>
            </g>
            <g id="Group-5" transform="translate(233.000000, 148.000000)">
                <path d="M1,29 L25,29 L25,1 L1,1 L1,29 Z M0,0 L26,0 L26,30 L0,30 L0,0 Z" id="Rectangle-50" fill="#212D5C" fill-rule="nonzero"></path>
                <rect id="Rectangle" fill="#D2E2FF" x="1" y="1" width="24" height="28"></rect>
                <rect id="Rectangle-51" fill="#212D5C" x="9" y="12" width="8" height="1"></rect>
                <rect id="Rectangle-51" fill="#212D5C" x="9" y="17" width="8" height="1"></rect>
                <path d="M5,25 L21,25 L21,5 L5,5 L5,25 Z M4,4 L22,4 L22,26 L4,26 L4,4 Z" id="Rectangle-108" fill="#212D5C" fill-rule="nonzero"></path>
            </g>
        </g>
    </g>
</svg>