<?xml version="1.0" encoding="UTF-8" standalone="no"?>
<svg width="18px" height="18px" viewBox="0 0 18 18" version="1.1" xmlns="http://www.w3.org/2000/svg" xmlns:xlink="http://www.w3.org/1999/xlink" xmlns:sketch="http://www.bohemiancoding.com/sketch/ns">
    <!-- Generator: Sketch 3.5.1 (25234) - http://www.bohemiancoding.com/sketch -->
    <title>附件</title>
    <desc>Created with Sketch.</desc>
    <defs></defs>
    <g id="Page-1" stroke="none" stroke-width="1" fill="none" fill-rule="evenodd" sketch:type="MSPage">
        <g id="svg" sketch:type="MSArtboardGroup" transform="translate(-64.000000, -78.000000)">
            <path d="M72.1093731,95.8340831 L72.1007105,95.8340831 C70.4047567,95.830233 69.0245083,94.4461345 69.0245083,92.7492182 L69.0245083,84.5909297 C69.0245083,82.2385398 70.8763897,80.3240948 73.1527409,80.3240948 C75.4031041,80.3240948 77.2338101,82.2385398 77.2338101,84.5909297 L77.2338101,90.5325431 C77.2338101,90.7991601 77.0182065,91.0138013 76.752552,91.0138013 C76.4859349,91.0138013 76.2712938,90.7991601 76.2712938,90.5325431 L76.2712938,84.5909297 C76.2712938,82.7380858 74.901633,81.2866111 73.1527409,81.2866111 C71.4076987,81.2866111 69.9870246,82.7688863 69.9870246,84.5909297 L69.9870246,92.7492182 C69.9870246,93.9167506 70.9370282,94.8686792 72.103598,94.8715668 L72.1093731,94.8715668 C72.6791828,94.8715668 73.2172294,94.648263 73.6234113,94.2430436 C74.0315183,93.8358992 74.2557846,93.29689 74.2557846,92.7251553 L74.2557846,84.5986299 C74.2557846,84.2896621 74.13547,83.9999447 73.9169788,83.782416 C73.6994501,83.5639248 73.4106952,83.4445728 73.10269,83.4445728 L73.0998025,83.4445728 C72.7917972,83.4455353 72.5030423,83.5668123 72.2855136,83.7853035 C72.0679849,84.0037948 71.9486329,84.2935122 71.9495954,84.6024799 L71.9698083,91.1543287 C71.9707708,91.4209457 71.7542046,91.6317368 71.4885501,91.6365493 C71.2238581,91.6365493 71.0082544,91.4219082 71.0072919,91.1572162 L70.9870791,84.604405 C70.9851541,84.0394079 71.2036453,83.5071363 71.6030895,83.105767 C72.0015713,82.7053602 72.5319178,82.4839815 73.0978774,82.4820564 L73.10269,82.4820564 C73.6667246,82.4820564 74.1970711,82.7015101 74.5965154,83.1009544 C74.9978847,83.5003987 75.2183009,84.0326702 75.2183009,84.5986299 L75.2183009,92.7251553 C75.2183009,93.5538819 74.8939329,94.3354452 74.3029479,94.9245052 C73.7148504,95.5116401 72.9361747,95.8340831 72.1093731,95.8340831" id="附件" fill="#525C6F" sketch:type="MSShapeGroup" transform="translate(73.129159, 88.079089) rotate(-320.000000) translate(-73.129159, -88.079089) "></path>
            <g id="切图" sketch:type="MSLayerGroup" transform="translate(32.000000, 16.000000)"></g>
        </g>
    </g>
</svg>